<svg fill="none" version="1.1" viewBox="0 0 23.391 20.5" xmlns="http://www.w3.org/2000/svg">
   <g transform="translate(-52.741 -107.21)" clip-path="url(#a)">
      <g transform="translate(-41.009 106.46)" fill="#000" stroke="#000" stroke-width=".5">
         <path
            d="m112.52 15.308h-8.969c-1.064 0-2.006-0.7126-2.29-1.7322l-3.0324-10.584c-0.1717-0.61237-0.7355-1.0378-1.3736-1.0378h-2.3751c-0.2632 0-0.4769-0.21366-0.4769-0.47692 0-0.26327 0.2137-0.47693 0.4769-0.47693h2.3751c1.0636 0 2.006 0.71253 2.2902 1.7322l0.5981 2.0832h15.721c0.457 0 0.875 0.20985 1.147 0.57613 0.273 0.36628 0.354 0.82794 0.222 1.2648l-2.051 7.0108c-0.33 0.9882-1.237 1.6407-2.262 1.6407zm-12.504-9.5386 2.162 7.5468c0.171 0.6124 0.735 1.0378 1.373 1.0378h8.969c0.605 0 1.16-0.3997 1.351-0.971l2.05-6.9994c0.043-0.14594 0.016-0.29951-0.075-0.4216-0.09-0.12305-0.23-0.19268-0.382-0.19268z" />
         <path
            d="m104.49 21c-1.052 0-1.907-0.8556-1.907-1.9077s0.855-1.9077 1.907-1.9077c1.053 0 1.908 0.8556 1.908 1.9077s-0.855 1.9077-1.908 1.9077zm0-2.8615c-0.526 0-0.953 0.4282-0.953 0.9538s0.427 0.9539 0.953 0.9539c0.527 0 0.954-0.4283 0.954-0.9539s-0.427-0.9538-0.954-0.9538z" />
         <path
            d="m111.17 21c-1.052 0-1.907-0.8556-1.907-1.9077s0.855-1.9077 1.907-1.9077 1.908 0.8556 1.908 1.9077-0.856 1.9077-1.908 1.9077zm0-2.8615c-0.526 0-0.954 0.4282-0.954 0.9538s0.428 0.9539 0.954 0.9539c0.527 0 0.954-0.4283 0.954-0.9539s-0.427-0.9538-0.954-0.9538z" />
      </g>
      <g transform="translate(-41.009 106.46)">
         <g fill="#000">
            <path
               d="m55.4 11c-0.9889 0-1.9556-0.2933-2.7779-0.8427-0.8222-0.54938-1.4631-1.3303-1.8415-2.2439-0.3784-0.91362-0.4775-1.919-0.2845-2.8889 0.1929-0.9699 0.6691-1.8608 1.3684-2.5601 0.6992-0.69927 1.5901-1.1755 2.56-1.3684 0.9699-0.19293 1.9753-0.09391 2.8889 0.28452 0.9136 0.37844 1.6945 1.0193 2.2439 1.8416 0.5494 0.82224 0.8427 1.7889 0.8427 2.7778 0 1.3261-0.5268 2.5978-1.4645 3.5355s-2.2094 1.4645-3.5355 1.4645zm0-8.5714c-0.7064 0-1.3969 0.20946-1.9842 0.60189-0.5873 0.39244-1.0451 0.95022-1.3154 1.6028s-0.341 1.3707-0.2032 2.0635 0.4779 1.3292 0.9774 1.8286 1.1358 0.83961 1.8286 0.97742c0.6928 0.1378 1.4109 0.06708 2.0635-0.20324 0.6526-0.27031 1.2104-0.72807 1.6028-1.3154 0.3924-0.58732 0.6019-1.2778 0.6019-1.9842 0-0.9472-0.3763-1.8556-1.046-2.5254-0.6698-0.66978-1.5782-1.046-2.5254-1.046z" />
            <path
               d="m61.657 21h-12.514c-0.3258 0-0.6473-0.0743-0.9401-0.2172s-0.5492-0.3507-0.7496-0.6076-0.3396-0.5561-0.407-0.8748c-0.0673-0.3188-0.0612-0.6487 0.0181-0.9647 0.8714-3.5357 4.2214-5.9071 8.3357-5.9071 3.6214 0 6.6643 1.8071 7.9357 4.7142 0.1745 0.4093 0.3155 0.8322 0.4214 1.2643 0.0707 0.3064 0.0714 0.6247 0.0022 0.9314-0.0693 0.3066-0.2067 0.5938-0.4022 0.84-0.2018 0.2577-0.4599 0.4657-0.7546 0.6081s-0.6181 0.2154-0.9454 0.2134zm-6.2571-7.1429c-3.5 0-6.2286 1.8929-6.95 4.8214-0.0278 0.1075-0.0302 0.2199-0.0069 0.3284 0.0232 0.1085 0.0713 0.2101 0.1407 0.2968 0.0693 0.0866 0.1578 0.1559 0.2586 0.2024s0.211 0.0688 0.3219 0.0653h12.493c0.1115 0.0019 0.2219-0.0222 0.3224-0.0706s0.1882-0.1196 0.2562-0.208c0.0635-0.0763 0.1081-0.1665 0.1305-0.2633 0.0223-0.0967 0.0216-0.1974-0.0019-0.2938-0.0839-0.3491-0.1961-0.6907-0.3357-1.0214-1.0429-2.3786-3.5857-3.8572-6.6286-3.8572z" />
         </g>
      </g>
      <g transform="translate(-41.009 106.46)" clip-rule="evenodd" fill-rule="evenodd"
         stroke="#130f26" stroke-linecap="round" stroke-linejoin="round" stroke-width="1.5">
         <path
            d="m12.111 9.3339c0-1.5347-1.2436-2.7783-2.7773-2.7783-1.5347 0-2.7783 1.2436-2.7783 2.7783 0 1.5337 1.2436 2.7773 2.7783 2.7773 1.5337 0 2.7773-1.2436 2.7773-2.7773z" />
         <path
            d="M 9.33279,21 C 8.00115,21 1,15.3315 1,9.40366 1,4.76293 4.73011,1 9.33279,1 13.9355,1 17.6667,4.76293 17.6667,9.40366 17.6667,15.3315 10.6644,21 9.33279,21 Z" />
      </g>
   </g>
   <defs>
      <clipPath id="a">
         <rect transform="translate(-1513,-59)" width="1920" height="6141" fill="#fff" />
      </clipPath>
   </defs>
</svg>